<?xml version="1.0" standalone="no"?>
<!DOCTYPE svg PUBLIC "-//W3C//DTD SVG 20010904//EN"
 "http://www.w3.org/TR/2001/REC-SVG-20010904/DTD/svg10.dtd">
<svg version="1.0" xmlns="http://www.w3.org/2000/svg"
 width="700.000000pt" height="700.000000pt" viewBox="0 0 700.000000 700.000000"
 preserveAspectRatio="xMidYMid meet">
<metadata>
Created by potrace 1.11, written by Peter Selinger 2001-2013
</metadata>
<g transform="translate(0.000000,700.000000) scale(0.100000,-0.100000)"
fill="#000000" stroke="none">
<path d="M3269 6886 c-2 -2 -42 -7 -89 -11 -47 -4 -94 -9 -105 -11 -11 -2 -42
-6 -70 -9 -145 -17 -431 -86 -616 -151 -223 -78 -509 -212 -647 -305 -24 -16
-45 -29 -47 -29 -6 0 -199 -132 -205 -140 -3 -4 -12 -11 -21 -16 -57 -32 -247
-199 -379 -333 -160 -161 -197 -206 -363 -429 -26 -34 -47 -64 -47 -66 0 -3
-17 -31 -39 -63 -132 -200 -265 -479 -355 -743 -39 -116 -96 -328 -111 -410
-10 -57 -15 -86 -19 -106 -2 -12 -8 -45 -11 -75 -4 -30 -9 -65 -11 -79 -26
-172 -25 -656 1 -830 2 -14 6 -45 10 -70 64 -453 230 -903 480 -1305 87 -140
226 -329 325 -440 45 -51 262 -269 315 -316 119 -106 356 -277 517 -372 217
-128 539 -269 738 -323 216 -59 365 -92 493 -109 27 -4 57 -8 66 -10 102 -20
610 -28 736 -12 33 4 80 10 105 13 814 95 1610 522 2145 1149 33 39 63 72 66
75 14 12 165 221 214 295 176 271 336 624 421 932 19 71 37 144 40 163 3 19 7
37 9 40 4 6 29 149 40 225 4 22 8 51 10 65 21 136 28 583 12 730 -5 41 -10 91
-12 110 -3 31 -14 103 -30 195 -3 17 -12 62 -21 100 -9 39 -18 80 -20 92 -9
45 -75 263 -104 344 -108 295 -260 585 -434 824 -177 244 -413 493 -642 675
-97 78 -326 240 -339 240 -3 0 -29 15 -58 34 -50 32 -349 186 -362 186 -3 0
-24 9 -48 19 -129 59 -435 155 -592 187 -44 9 -142 26 -170 31 -16 2 -41 6
-55 9 -14 2 -52 6 -85 10 -33 3 -71 8 -85 11 -28 6 -546 14 -551 9z m456 -881
c39 -3 81 -7 95 -9 14 -3 59 -10 100 -16 41 -7 84 -14 94 -16 31 -6 179 -44
206 -53 14 -5 52 -17 85 -27 33 -10 65 -21 70 -25 6 -3 28 -12 50 -19 22 -7
107 -46 190 -87 797 -394 1324 -1174 1392 -2058 12 -146 5 -405 -12 -525 -43
-286 -120 -539 -237 -775 -71 -144 -80 -159 -174 -300 -286 -430 -734 -783
-1216 -956 -96 -34 -259 -83 -321 -95 -199 -39 -325 -55 -469 -58 l-73 -1 -3
2505 c-1 1378 0 2510 2 2516 4 12 62 11 221 -1z"/>
</g>
</svg>
